<?xml version="1.0" encoding="UTF-8" standalone="no"?>
<!-- Created with Inkscape (http://www.inkscape.org/) -->

<svg
   xmlns:dc="http://purl.org/dc/elements/1.1/"
   xmlns:cc="http://creativecommons.org/ns#"
   xmlns:rdf="http://www.w3.org/1999/02/22-rdf-syntax-ns#"
   xmlns:svg="http://www.w3.org/2000/svg"
   xmlns="http://www.w3.org/2000/svg"
   xmlns:xlink="http://www.w3.org/1999/xlink"
   xmlns:inkscape="http://www.inkscape.org/namespaces/inkscape"
   version="1.1"
   width="25"
   height="650"
   id="svg2">
  <defs
     id="defs4">
    <linearGradient
       id="linearGradient5608">
      <stop
         id="stop5610"
         style="stop-color:#000000;stop-opacity:1"
         offset="0" />
      <stop
         id="stop5612"
         style="stop-color:#000000;stop-opacity:0"
         offset="1" />
    </linearGradient>
    <linearGradient
       id="linearGradient3942">
      <stop
         id="stop3944"
         style="stop-color:#ffa7a7;stop-opacity:1"
         offset="0" />
      <stop
         id="stop3950"
         style="stop-color:#ffa7a7;stop-opacity:1"
         offset="0.5" />
      <stop
         id="stop3952"
         style="stop-color:#e0d3ff;stop-opacity:1"
         offset="0.5" />
      <stop
         id="stop3946"
         style="stop-color:#e0d3ff;stop-opacity:1"
         offset="1" />
    </linearGradient>
    <marker
       refX="0"
       refY="0"
       orient="auto"
       id="Arrow1Mend"
       style="overflow:visible">
      <path
         d="M 0,0 5,-5 -12.5,0 5,5 0,0 z"
         transform="matrix(-0.4,0,0,-0.4,-4,0)"
         id="path4068"
         style="fill-rule:evenodd;stroke:#000000;stroke-width:1pt" />
    </marker>
    <inkscape:path-effect
       effect="bend_path"
       id="path-effect5255" />
    <marker
       refX="0"
       refY="0"
       orient="auto"
       id="Arrow1Mstart"
       style="overflow:visible">
      <path
         d="M 0,0 5,-5 -12.5,0 5,5 0,0 z"
         transform="matrix(0.4,0,0,0.4,4,0)"
         id="path4065"
         style="fill-rule:evenodd;stroke:#000000;stroke-width:1pt" />
    </marker>
    <marker
       refX="0"
       refY="0"
       orient="auto"
       id="Arrow1Lstart"
       style="overflow:visible">
      <path
         d="M 0,0 5,-5 -12.5,0 5,5 0,0 z"
         transform="matrix(0.8,0,0,0.8,10,0)"
         id="path4059"
         style="fill-rule:evenodd;stroke:#000000;stroke-width:1pt" />
    </marker>
    <marker
       refX="0"
       refY="0"
       orient="auto"
       id="Arrow2Lstart"
       style="overflow:visible">
      <path
         d="M 8.7185878,4.0337352 -2.2072895,0.01601326 8.7185884,-4.0017078 c -1.7454984,2.3720609 -1.7354408,5.6174519 -6e-7,8.035443 z"
         transform="matrix(1.1,0,0,1.1,1.1,0)"
         id="path4077"
         style="fill-rule:evenodd;stroke-width:0.625;stroke-linejoin:round" />
    </marker>
    <linearGradient
       id="linearGradient7796">
      <stop
         id="stop7798"
         style="stop-color:#8bd6ff;stop-opacity:1"
         offset="0" />
      <stop
         id="stop7800"
         style="stop-color:#ffffff;stop-opacity:1"
         offset="1" />
    </linearGradient>
    <linearGradient
       id="linearGradient7296">
      <stop
         id="stop7298"
         style="stop-color:#0bb7ff;stop-opacity:1"
         offset="0" />
    </linearGradient>
    <marker
       refX="0"
       refY="0"
       orient="auto"
       id="Arrow2Lend"
       style="overflow:visible">
      <path
         d="M 8.7185878,4.0337352 -2.2072895,0.01601326 8.7185884,-4.0017078 c -1.7454984,2.3720609 -1.7354408,5.6174519 -6e-7,8.035443 z"
         transform="matrix(-1.1,0,0,-1.1,-1.1,0)"
         id="path4229"
         style="fill-rule:evenodd;stroke-width:0.625;stroke-linejoin:round" />
    </marker>
    <linearGradient
       x1="-41"
       y1="835.36218"
       x2="-28"
       y2="849.36218"
       id="linearGradient7850"
       xlink:href="#linearGradient7796"
       gradientUnits="userSpaceOnUse"
       gradientTransform="matrix(0.81420154,0,0,0.81420154,39.1683,102.18085)" />
    <linearGradient
       x1="10"
       y1="620"
       x2="10"
       y2="605"
       id="linearGradient3948"
       xlink:href="#linearGradient3942"
       gradientUnits="userSpaceOnUse"
       gradientTransform="matrix(1.1291876,0,0,1.12728,263.52228,285.65625)" />
    <linearGradient
       x1="12.960582"
       y1="1070.0687"
       x2="-22.232346"
       y2="1050.0884"
       id="linearGradient5900"
       xlink:href="#linearGradient7796"
       gradientUnits="userSpaceOnUse"
       gradientTransform="matrix(0.58648492,0,0,0.58648492,14.692687,414.31205)" />
  </defs>
  <metadata
     id="metadata7">
    <rdf:RDF>
      <cc:Work
         rdf:about="">
        <dc:format>image/svg+xml</dc:format>
        <dc:type
           rdf:resource="http://purl.org/dc/dcmitype/StillImage" />
        <dc:title></dc:title>
      </cc:Work>
    </rdf:RDF>
  </metadata>
  <g
     transform="translate(0,-402.36218)"
     id="layer1">
    <g
       transform="translate(0,-50)"
       id="g5807"
       style="stroke-width:0.5;stroke-miterlimit:4;stroke-dasharray:none">
      <rect
         width="2.9894795"
         height="2.9894798"
         rx="0.89684379"
         x="6.0020809"
         y="603.46222"
         id="rect5727"
         style="color:#000000;fill:#16e0ff;fill-opacity:1;fill-rule:nonzero;stroke:#030000;stroke-width:0.5;stroke-linecap:round;stroke-linejoin:round;stroke-miterlimit:4;stroke-opacity:1;stroke-dasharray:none;stroke-dashoffset:0;marker:none;visibility:visible;display:inline;overflow:visible;enable-background:accumulate" />
      <rect
         width="2.9894795"
         height="2.9894798"
         rx="0.89684379"
         x="9.935607"
         y="603.46216"
         id="rect5729"
         style="color:#000000;fill:#16e0ff;fill-opacity:1;fill-rule:nonzero;stroke:#030000;stroke-width:0.5;stroke-linecap:round;stroke-linejoin:round;stroke-miterlimit:4;stroke-opacity:1;stroke-dasharray:none;stroke-dashoffset:0;marker:none;visibility:visible;display:inline;overflow:visible;enable-background:accumulate" />
      <rect
         width="2.9894795"
         height="2.9894798"
         rx="0.89684379"
         x="6.0020809"
         y="607.39569"
         id="rect5731"
         style="color:#000000;fill:#ff4716;fill-opacity:1;fill-rule:nonzero;stroke:#030000;stroke-width:0.5;stroke-linecap:butt;stroke-linejoin:round;stroke-miterlimit:4;stroke-opacity:1;stroke-dasharray:none;stroke-dashoffset:0;marker:none;visibility:visible;display:inline;overflow:visible;enable-background:accumulate" />
      <rect
         width="2.9894795"
         height="2.9894798"
         rx="0.89684379"
         x="13.869132"
         y="607.39569"
         id="rect5733"
         style="color:#000000;fill:#16e0ff;fill-opacity:1;fill-rule:nonzero;stroke:#030000;stroke-width:0.5;stroke-linecap:round;stroke-linejoin:round;stroke-miterlimit:4;stroke-opacity:1;stroke-dasharray:none;stroke-dashoffset:0;marker:none;visibility:visible;display:inline;overflow:visible;enable-background:accumulate" />
      <rect
         width="2.9894795"
         height="2.9894798"
         rx="0.89684379"
         x="6.0020809"
         y="611.32922"
         id="rect5735"
         style="color:#000000;fill:#16e0ff;fill-opacity:1;fill-rule:nonzero;stroke:#030000;stroke-width:0.5;stroke-linecap:round;stroke-linejoin:round;stroke-miterlimit:4;stroke-opacity:1;stroke-dasharray:none;stroke-dashoffset:0;marker:none;visibility:visible;display:inline;overflow:visible;enable-background:accumulate" />
    </g>
    <path
       d="m 7.5266503,407.36218 11.1953677,7.50321 -11.1953677,7.50322 z"
       id="path3067"
       style="fill:none;stroke:#000000;stroke-width:1px;stroke-linecap:butt;stroke-linejoin:miter;stroke-opacity:1" />
    <path
       d="m 18.722018,432.36218 -11.1953677,7.50321 11.1953677,7.50322 z"
       id="path3069"
       style="fill:none;stroke:#000000;stroke-width:1px;stroke-linecap:butt;stroke-linejoin:miter;stroke-opacity:1" />
    <g
       transform="translate(1,-50)"
       id="g3902">
      <path
         d="m 5.5,507.86218 4,0 0,14 -4,0 z"
         id="path3882"
         style="fill:none;stroke:#000000;stroke-width:1px;stroke-linecap:butt;stroke-linejoin:miter;stroke-opacity:1" />
      <path
         d="m 13.5,507.86218 4,0 0,14 -4,0 z"
         id="path3886"
         style="fill:none;stroke:#000000;stroke-width:1px;stroke-linecap:butt;stroke-linejoin:miter;stroke-opacity:1" />
    </g>
    <path
       d="m 2.5000001,488.9603 19.0899499,0 0,0 0,0 0,0"
       id="path4202"
       style="fill:none;stroke:#000000;stroke-width:0.99999994px;stroke-linecap:butt;stroke-linejoin:miter;stroke-opacity:1;marker-end:url(#Arrow2Lend)" />
    <g
       transform="translate(-2,-451)"
       id="g4701">
      <path
         d="M 5.5,957.86218 16.695368,965.36539 5.5,972.86861"
         id="path3067-8"
         style="fill:none;stroke:#000000;stroke-width:1px;stroke-linecap:butt;stroke-linejoin:miter;stroke-opacity:1" />
      <path
         d="M 11.304632,957.86218 22.5,965.36539 11.304632,972.86861"
         id="path4699"
         style="fill:none;stroke:#000000;stroke-width:1px;stroke-linecap:butt;stroke-linejoin:miter;stroke-opacity:1" />
    </g>
    <g
       transform="translate(-2,-451)"
       id="g4705">
      <path
         d="M 5.5,957.86218 16.695368,965.36539 5.5,972.86861"
         id="path4707"
         style="fill:none;stroke:#000000;stroke-width:1px;stroke-linecap:butt;stroke-linejoin:miter;stroke-opacity:1" />
      <path
         d="M 11.304632,957.86218 22.5,965.36539 11.304632,972.86861"
         id="path4709"
         style="fill:none;stroke:#000000;stroke-width:1px;stroke-linecap:butt;stroke-linejoin:miter;stroke-opacity:1" />
    </g>
    <g
       transform="matrix(-1,0,0,1,26,-426.00643)"
       id="g4715">
      <path
         d="M 5.5,957.86218 16.695368,965.36539 5.5,972.86861"
         id="path4717"
         style="fill:none;stroke:#000000;stroke-width:1px;stroke-linecap:butt;stroke-linejoin:miter;stroke-opacity:1" />
      <path
         d="M 11.304632,957.86218 22.5,965.36539 11.304632,972.86861"
         id="path4719"
         style="fill:none;stroke:#000000;stroke-width:1px;stroke-linecap:butt;stroke-linejoin:miter;stroke-opacity:1" />
    </g>
    <g
       transform="matrix(0.78670517,0,0,0.78670517,24.124042,42.898724)"
       id="g5719">
      <path
         d="m -20.5625,657.76843 15,20 c 0.1879245,0.35045 0.704476,0.46951 1.0268461,0.23669 0.3223701,-0.23282 0.3717464,-0.76061 0.098154,-1.04919 l -15.0000001,-20 z"
         id="path4625"
         style="font-size:medium;font-style:normal;font-variant:normal;font-weight:normal;font-stretch:normal;text-indent:0;text-align:start;text-decoration:none;line-height:normal;letter-spacing:normal;word-spacing:normal;text-transform:none;direction:ltr;block-progression:tb;writing-mode:lr-tb;text-anchor:start;baseline-shift:baseline;color:#000000;fill:#000000;fill-opacity:1;stroke:none;stroke-width:1.39999998;marker:none;visibility:visible;display:inline;overflow:visible;enable-background:accumulate;font-family:Sans;-inkscape-font-specification:Sans" />
      <path
         d="m -15.989587,673.06265 -5.145677,-17.17305 15.0453435,9.7483 c -4.5352195,0.0413 -8.5242475,3.05247 -9.8996665,7.42475 z"
         id="path5725"
         style="fill-rule:evenodd;stroke-width:0.625;stroke-linejoin:round" />
    </g>
    <path
       d="m 9.0702306,560.46387 0.7867052,0.78671 m -2.3601156,0 0,0.7867 m 0,-5.50694 0,-0.7867 m -1.5734103,4.72023 -0.7867052,0.78671 0,0 0,0 m 4.7202311,-2.36012 0.7867052,0 m -5.5069363,0 -0.7867051,0 m 1.5734103,-1.57341 -0.7867052,-0.78671 m 3.9335259,0.78671 0.7867052,-0.78671 0,0"
       id="path5768"
       style="fill:none;stroke:#ffea00;stroke-width:0.69999999;stroke-linecap:butt;stroke-linejoin:miter;stroke-miterlimit:4;stroke-opacity:1;stroke-dasharray:none" />
    <rect
       width="16"
       height="15.999997"
       rx="0.95663339"
       x="4.5"
       y="581.86218"
       id="rect5814"
       style="color:#000000;fill:#0bb7ff;fill-opacity:0.44782607;fill-rule:nonzero;stroke:#000000;stroke-width:1;stroke-linecap:butt;stroke-linejoin:round;stroke-miterlimit:4;stroke-opacity:1;stroke-dasharray:3.00000006, 3.00000006;stroke-dashoffset:0;marker:none;visibility:visible;display:inline;overflow:visible;enable-background:accumulate" />
    <path
       d="m 6.5,620.86218 12,-12 m -12,0 12,12"
       id="path5837"
       style="color:#000000;fill:#0bb7ff;fill-opacity:0.44782607;fill-rule:nonzero;stroke:#ff0000;stroke-width:3;stroke-linecap:round;stroke-linejoin:round;stroke-miterlimit:4;stroke-opacity:1;stroke-dasharray:none;stroke-dashoffset:0;marker:none;visibility:visible;display:inline;overflow:visible;enable-background:accumulate" />
    <path
       d="m 22.263864,635.12604 c -0.162105,-0.1621 -0.407824,-0.25 -0.65625,-0.25 l -13.1874999,0 c -0.2484257,0 -0.4941455,0.0879 -0.65625,0.25 -0.1621045,0.1621 -0.25,0.40782 -0.25,0.65625 l 0,8.5 c 0.8242451,0.21293 1.6528041,0.41787 2.4375,0.6875 4.4580289,0.90255 9.3000959,-1.86273 10.9687499,-6.0625 0.56625,-1.03393 1.064134,-2.39722 1.34375,-3.75 0.002,-0.01 -0.002,-0.0214 0,-0.0313 z"
       id="path7327"
       style="color:#000000;fill:#0036ff;fill-opacity:0.40611351;fill-rule:nonzero;stroke:none;stroke-width:0;marker:none;visibility:visible;display:inline;overflow:visible;enable-background:accumulate" />
    <path
       d="m 9.2951141,628.87604 c -1.453261,-0.0519 -2.915465,0.43712 -4.15625,1.40625 -1.7350509,0.94878 -3.815078,2.59322 -3.625,5.03125 0.9015744,2.61399 -1.07070851,4.77213 1.25,6.96875 1.3706616,1.07739 3.056805,1.56259 4.75,2 l 0,-8.5 c 0,-0.24843 0.087896,-0.49415 0.25,-0.65625 0.1621045,-0.1621 0.4078243,-0.25 0.65625,-0.25 l 13.1874999,0 c 0.248426,0 0.494145,0.0879 0.65625,0.25 0.371451,-1.82688 0.275394,-3.6458 -1.3125,-4.75 -2.629658,-0.92676 -5.193023,2.55244 -7.65625,0.28125 -1.1239,-1.14567 -2.546739,-1.72935 -3.9999999,-1.78125 z"
       id="path5843"
       style="color:#000000;fill:#2000ff;fill-opacity:1;fill-rule:nonzero;stroke:none;stroke-width:0;marker:none;visibility:visible;display:inline;overflow:visible;enable-background:accumulate" />
    <rect
       width="15"
       height="13"
       rx="0.89684379"
       x="7.513864"
       y="634.87604"
       id="rect7314"
       style="color:#000000;fill:none;stroke:#000000;stroke-width:1;stroke-miterlimit:4;stroke-opacity:1;stroke-dasharray:4, 4;stroke-dashoffset:0;marker:none;visibility:visible;display:inline;overflow:visible;enable-background:accumulate" />
    <path
       d="m 9.2630556,653.92398 c -1.453261,-0.0519 -2.915465,0.43712 -4.15625,1.40625 -1.7350509,0.94878 -3.815078,2.59322 -3.625,5.03125 0.9015744,2.61399 -1.07070845,4.77213 1.25,6.96875 1.3706616,1.07739 3.056805,1.56259 4.75,2 l 0,-8.5 c 0,-0.24843 0.087896,-0.49415 0.25,-0.65625 0.1621045,-0.1621 0.4078243,-0.25 0.65625,-0.25 l 13.1875004,0 c 0.248426,0 0.494145,0.0879 0.65625,0.25 0.371451,-1.82688 0.275394,-3.6458 -1.3125,-4.75 -2.629658,-0.92676 -5.193023,2.55244 -7.65625,0.28125 -1.1239,-1.14567 -2.546739,-1.72935 -4.0000004,-1.78125 z"
       id="path7349"
       style="color:#000000;fill:#0036ff;fill-opacity:0.40611351;fill-rule:nonzero;stroke:none;stroke-width:0;marker:none;visibility:visible;display:inline;overflow:visible;enable-background:accumulate" />
    <path
       d="m 22.231806,660.17398 c -0.162105,-0.1621 -0.407824,-0.25 -0.65625,-0.25 l -13.1875004,0 c -0.2484257,0 -0.4941455,0.0879 -0.65625,0.25 -0.1621045,0.1621 -0.25,0.40782 -0.25,0.65625 l 0,8.5 c 0.8242451,0.21293 1.6528041,0.41787 2.4375003,0.6875 4.4580291,0.90255 9.3000961,-1.86273 10.9687501,-6.0625 0.56625,-1.03393 1.064134,-2.39722 1.34375,-3.75 0.002,-0.01 -0.002,-0.0214 0,-0.0313 z"
       id="path7347"
       style="color:#000000;fill:#0036ff;fill-opacity:1;fill-rule:nonzero;stroke:none;stroke-width:0;marker:none;visibility:visible;display:inline;overflow:visible;enable-background:accumulate" />
    <rect
       width="15"
       height="13"
       rx="0.89684379"
       x="7.4818053"
       y="659.92395"
       id="rect7351"
       style="color:#000000;fill:none;stroke:#000000;stroke-width:1;stroke-miterlimit:4;stroke-opacity:1;stroke-dasharray:4, 4;stroke-dashoffset:0;marker:none;visibility:visible;display:inline;overflow:visible;enable-background:accumulate" />
    <g
       transform="translate(0,-50)"
       id="g7569">
      <rect
         width="3"
         height="3"
         x="3"
         y="730.36218"
         id="rect7467"
         style="color:#000000;fill:#0036ff;fill-opacity:1;fill-rule:nonzero;stroke:none;stroke-width:0;marker:none;visibility:visible;display:inline;overflow:visible;enable-background:accumulate" />
      <rect
         width="3"
         height="3"
         x="9"
         y="730.36218"
         id="rect7469"
         style="color:#000000;fill:#0036ff;fill-opacity:1;fill-rule:nonzero;stroke:none;stroke-width:0;marker:none;visibility:visible;display:inline;overflow:visible;enable-background:accumulate" />
      <rect
         width="3"
         height="3"
         x="6"
         y="733.36218"
         id="rect7471"
         style="color:#000000;fill:#0036ff;fill-opacity:1;fill-rule:nonzero;stroke:none;stroke-width:0;marker:none;visibility:visible;display:inline;overflow:visible;enable-background:accumulate" />
      <rect
         width="3"
         height="3"
         x="6"
         y="736.36218"
         id="rect7473"
         style="color:#000000;fill:#0036ff;fill-opacity:1;fill-rule:nonzero;stroke:none;stroke-width:0;marker:none;visibility:visible;display:inline;overflow:visible;enable-background:accumulate" />
      <rect
         width="3"
         height="3"
         x="12"
         y="730.36218"
         id="rect7475"
         style="color:#000000;fill:#0036ff;fill-opacity:1;fill-rule:nonzero;stroke:none;stroke-width:0;marker:none;visibility:visible;display:inline;overflow:visible;enable-background:accumulate" />
      <rect
         width="3"
         height="3"
         x="18"
         y="730.36218"
         id="rect7477"
         style="color:#000000;fill:#0036ff;fill-opacity:1;fill-rule:nonzero;stroke:none;stroke-width:0;marker:none;visibility:visible;display:inline;overflow:visible;enable-background:accumulate" />
      <rect
         width="3"
         height="3"
         x="12"
         y="736.36218"
         id="rect7479"
         style="color:#000000;fill:#0036ff;fill-opacity:1;fill-rule:nonzero;stroke:none;stroke-width:0;marker:none;visibility:visible;display:inline;overflow:visible;enable-background:accumulate" />
      <rect
         width="3"
         height="3"
         x="3"
         y="742.36218"
         id="rect7481"
         style="color:#000000;fill:#0036ff;fill-opacity:1;fill-rule:nonzero;stroke:none;stroke-width:0;marker:none;visibility:visible;display:inline;overflow:visible;enable-background:accumulate" />
      <rect
         width="3"
         height="3"
         x="3"
         y="736.36218"
         id="rect7483"
         style="color:#000000;fill:#0036ff;fill-opacity:1;fill-rule:nonzero;stroke:none;stroke-width:0;marker:none;visibility:visible;display:inline;overflow:visible;enable-background:accumulate" />
      <rect
         width="3"
         height="3"
         x="9"
         y="739.36218"
         id="rect7487"
         style="color:#000000;fill:#0036ff;fill-opacity:1;fill-rule:nonzero;stroke:none;stroke-width:0;marker:none;visibility:visible;display:inline;overflow:visible;enable-background:accumulate" />
      <rect
         width="3"
         height="3"
         x="15"
         y="739.36218"
         id="rect7489"
         style="color:#000000;fill:#0036ff;fill-opacity:1;fill-rule:nonzero;stroke:none;stroke-width:0;marker:none;visibility:visible;display:inline;overflow:visible;enable-background:accumulate" />
      <rect
         width="3"
         height="3"
         x="18"
         y="733.36218"
         id="rect7491"
         style="color:#000000;fill:#0036ff;fill-opacity:1;fill-rule:nonzero;stroke:none;stroke-width:0;marker:none;visibility:visible;display:inline;overflow:visible;enable-background:accumulate" />
      <rect
         width="3"
         height="3"
         x="15"
         y="742.36218"
         id="rect7493"
         style="color:#000000;fill:#0036ff;fill-opacity:1;fill-rule:nonzero;stroke:none;stroke-width:0;marker:none;visibility:visible;display:inline;overflow:visible;enable-background:accumulate" />
      <rect
         width="3"
         height="3"
         x="12"
         y="742.36218"
         id="rect7495"
         style="color:#000000;fill:#0036ff;fill-opacity:1;fill-rule:nonzero;stroke:none;stroke-width:0;marker:none;visibility:visible;display:inline;overflow:visible;enable-background:accumulate" />
      <rect
         width="3"
         height="3"
         x="9"
         y="745.36218"
         id="rect7497"
         style="color:#000000;fill:#0036ff;fill-opacity:1;fill-rule:nonzero;stroke:none;stroke-width:0;marker:none;visibility:visible;display:inline;overflow:visible;enable-background:accumulate" />
      <rect
         width="3"
         height="3"
         x="6"
         y="742.36218"
         id="rect7499"
         style="color:#000000;fill:#0036ff;fill-opacity:1;fill-rule:nonzero;stroke:none;stroke-width:0;marker:none;visibility:visible;display:inline;overflow:visible;enable-background:accumulate" />
      <rect
         width="3"
         height="3"
         x="3"
         y="745.36218"
         id="rect7501"
         style="color:#000000;fill:#0036ff;fill-opacity:1;fill-rule:nonzero;stroke:none;stroke-width:0;marker:none;visibility:visible;display:inline;overflow:visible;enable-background:accumulate" />
      <rect
         width="3"
         height="3"
         x="18"
         y="745.36218"
         id="rect7503"
         style="color:#000000;fill:#0036ff;fill-opacity:1;fill-rule:nonzero;stroke:none;stroke-width:0;marker:none;visibility:visible;display:inline;overflow:visible;enable-background:accumulate" />
      <rect
         width="3"
         height="3"
         x="18"
         y="739.36218"
         id="rect7507"
         style="color:#000000;fill:#0036ff;fill-opacity:1;fill-rule:nonzero;stroke:none;stroke-width:0;marker:none;visibility:visible;display:inline;overflow:visible;enable-background:accumulate" />
    </g>
    <g
       transform="translate(0,-50)"
       id="g7530">
      <rect
         width="19"
         height="19.000059"
         rx="1.2852396"
         x="2.4999998"
         y="729.86212"
         id="rect7459"
         style="color:#000000;fill:none;stroke:#000000;stroke-width:1;stroke-linecap:butt;stroke-linejoin:miter;stroke-miterlimit:4;stroke-opacity:1;stroke-dasharray:3.99999982, 3.99999982;stroke-dashoffset:0;marker:none;visibility:visible;display:inline;overflow:visible;enable-background:accumulate" />
    </g>
    <path
       d="m 15,310 a 5,5 0 1 1 -10,0 5,5 0 1 1 10,0 z"
       transform="matrix(1.1,0,0,1.1,1.5,370.86218)"
       id="path7609"
       style="color:#000000;fill:#ff0000;fill-opacity:1;fill-rule:nonzero;stroke:none;stroke-width:0;marker:none;visibility:visible;display:inline;overflow:visible;enable-background:accumulate" />
    <text
       x="4.5302243"
       y="725.36273"
       id="text7611"
       xml:space="preserve"
       style="font-size:9.43235493px;font-style:normal;font-variant:normal;font-weight:normal;font-stretch:normal;line-height:125%;letter-spacing:0px;word-spacing:0px;fill:#000000;fill-opacity:1;stroke:none;font-family:Monospace;-inkscape-font-specification:Monospace"><tspan
         x="4.5302243"
         y="725.36273"
         id="tspan7613">GIF</tspan></text>
    <text
       x="4.5302243"
       y="750.22864"
       id="text7646"
       xml:space="preserve"
       style="font-size:9.43235493px;font-style:normal;font-variant:normal;font-weight:normal;font-stretch:normal;line-height:125%;letter-spacing:0px;word-spacing:0px;fill:#000000;fill-opacity:1;stroke:none;font-family:Monospace;-inkscape-font-specification:Monospace"><tspan
         x="4.5302243"
         y="750.22864"
         id="tspan7648">GIF</tspan></text>
    <rect
       width="9"
       height="9"
       x="8"
       y="731.36218"
       id="rect7650"
       style="color:#000000;fill:#000000;fill-opacity:1;fill-rule:nonzero;stroke:none;stroke-width:0;marker:none;visibility:visible;display:inline;overflow:visible;enable-background:accumulate" />
    <path
       d="m 11.120301,763.97999 -6.1497499,0 3.6898497,-6.11781 6.1497492,0 3.68985,6.11781 -3.68985,6.1178 -6.1497492,0 -3.6898497,-6.1178 m 9.8395989,-6.11781 -3.689849,6.11781 3.689849,6.1178"
       id="path7677"
       style="fill:none;stroke:#535353;stroke-width:0.69999999;stroke-linecap:butt;stroke-linejoin:round;stroke-miterlimit:4;stroke-opacity:1;stroke-dasharray:none" />
    <path
       d="m 15,362.5 a 2.5,2.5 0 1 1 -5,0 2.5,2.5 0 1 1 5,0 z"
       transform="matrix(0.2429304,0,0,0.24166858,6.8613696,673.30862)"
       id="path7693"
       style="color:#000000;fill:#ff2b12;fill-opacity:1;stroke:none;stroke-width:0.10125945;marker:none;visibility:visible;display:inline;overflow:visible;enable-background:accumulate" />
    <path
       d="m 15,362.5 a 2.5,2.5 0 1 1 -5,0 2.5,2.5 0 1 1 5,0 z"
       transform="matrix(0.2429304,0,0,0.24166858,5.6161218,679.42642)"
       id="path7695"
       style="color:#000000;fill:#38b32a;fill-opacity:1;stroke:none;stroke-width:0.10125945;marker:none;visibility:visible;display:inline;overflow:visible;enable-background:accumulate" />
    <path
       d="m 15,362.5 a 2.5,2.5 0 1 1 -5,0 2.5,2.5 0 1 1 5,0 z"
       transform="matrix(0.2429304,0,0,0.24166858,8.0760216,679.42642)"
       id="path7697"
       style="color:#000000;fill:#38b32a;fill-opacity:1;stroke:none;stroke-width:0.10125945;marker:none;visibility:visible;display:inline;overflow:visible;enable-background:accumulate" />
    <path
       d="m 15,362.5 a 2.5,2.5 0 1 1 -5,0 2.5,2.5 0 1 1 5,0 z"
       transform="matrix(0.1214652,-0.20929112,0.2103839,0.12083429,-62.107541,721.50794)"
       id="path7699"
       style="color:#000000;fill:#29258b;fill-opacity:1;stroke:none;stroke-width:0.10125945;marker:none;visibility:visible;display:inline;overflow:visible;enable-background:accumulate" />
    <path
       d="m 15,362.5 a 2.5,2.5 0 1 1 -5,0 2.5,2.5 0 1 1 5,0 z"
       transform="matrix(0.1214652,-0.20929112,0.2103839,0.12083429,-62.853159,722.79268)"
       id="path7701"
       style="color:#000000;fill:#29258b;fill-opacity:1;stroke:none;stroke-width:0.10125945;marker:none;visibility:visible;display:inline;overflow:visible;enable-background:accumulate" />
    <path
       d="m 15,362.5 a 2.5,2.5 0 1 1 -5,0 2.5,2.5 0 1 1 5,0 z"
       transform="matrix(0.1214652,-0.20929112,0.2103839,0.12083429,-63.591129,724.06424)"
       id="path7703"
       style="color:#000000;fill:#29258b;fill-opacity:1;stroke:none;stroke-width:0.10125945;marker:none;visibility:visible;display:inline;overflow:visible;enable-background:accumulate" />
    <g
       transform="translate(2.3841858e-7,25.000058)"
       id="g7742">
      <rect
         width="19"
         height="19.000059"
         rx="1.2852396"
         x="2.4999998"
         y="729.86212"
         id="rect7744"
         style="color:#000000;fill:none;stroke:#000000;stroke-width:1;stroke-linecap:butt;stroke-linejoin:miter;stroke-miterlimit:4;stroke-opacity:1;stroke-dasharray:3.99999982, 3.99999982;stroke-dashoffset:0;marker:none;visibility:visible;display:inline;overflow:visible;enable-background:accumulate" />
    </g>
    <path
       d="m 16.428521,793.79071 5.757274,5.75728 m -5.95878,-17.07033 c 3.068369,3.06837 3.068368,8.04318 0,11.11154 -3.068366,3.06837 -8.0431701,3.06837 -11.1115382,0 -3.0683682,-3.06836 -3.0683674,-8.04317 0,-11.11154 3.0683665,-3.06836 8.0431702,-3.06836 11.1115382,0 z"
       id="path7788"
       style="fill:url(#linearGradient7850);fill-opacity:1;stroke:#000000;stroke-width:1;stroke-linecap:butt;stroke-linejoin:miter;stroke-miterlimit:4;stroke-opacity:1;stroke-dasharray:none" />
    <text
       x="6.1288571"
       y="793.73285"
       id="text7792"
       xml:space="preserve"
       style="font-size:15.35841465px;font-style:normal;font-variant:normal;font-weight:normal;font-stretch:normal;line-height:125%;letter-spacing:0px;word-spacing:0px;fill:#000000;fill-opacity:1;stroke:none;font-family:Monospace;-inkscape-font-specification:Monospace"><tspan
         x="6.1288571"
         y="793.73285"
         id="tspan7794">?</tspan></text>
    <g
       transform="translate(-4.2087586e-7,-49)"
       id="g5257">
      <path
         d="M 12.5,405 A 7.5,7.5 0 1 1 5,412.5"
         transform="matrix(1.0666667,0,0,1.0666678,-0.83333306,424.86169)"
         id="path3097"
         style="color:#000000;fill:none;stroke:#000000;stroke-width:0.93749952;stroke-linecap:butt;stroke-linejoin:round;stroke-miterlimit:4;stroke-opacity:1;stroke-dasharray:none;stroke-dashoffset:0;marker:none;visibility:visible;display:inline;overflow:visible;enable-background:accumulate" />
      <path
         d="m 7.5,856.86218 6,3 0,-6 z"
         id="path5253"
         style="fill:#000000;fill-opacity:1;stroke:#000000;stroke-width:1px;stroke-linecap:butt;stroke-linejoin:miter;stroke-opacity:1" />
    </g>
    <g
       transform="matrix(-1,0,0,1,25.000001,-24)"
       id="g5261">
      <path
         d="M 12.5,405 A 7.5,7.5 0 1 1 5,412.5"
         transform="matrix(1.0666667,0,0,1.0666678,-0.83333306,424.86169)"
         id="path5263"
         style="color:#000000;fill:none;stroke:#000000;stroke-width:0.93749952;stroke-linecap:butt;stroke-linejoin:round;stroke-miterlimit:4;stroke-opacity:1;stroke-dasharray:none;stroke-dashoffset:0;marker:none;visibility:visible;display:inline;overflow:visible;enable-background:accumulate" />
      <path
         d="m 7.5,856.86218 6,3 0,-6 z"
         id="path5265"
         style="fill:#000000;fill-opacity:1;stroke:#000000;stroke-width:1px;stroke-linecap:butt;stroke-linejoin:miter;stroke-opacity:1" />
    </g>
    <g
       transform="translate(-1,-50.01481)"
       id="g5289">
      <path
         d="m 3.5590954,906.86218 17.9112766,0 0,0"
         id="path5267"
         style="fill:none;stroke:#000000;stroke-width:1px;stroke-linecap:square;stroke-linejoin:miter;stroke-opacity:1" />
      <path
         d="m 3.5,912.86218 17.911277,0 0,0"
         id="path5275"
         style="fill:none;stroke:#000000;stroke-width:1;stroke-linecap:square;stroke-linejoin:miter;stroke-miterlimit:4;stroke-opacity:1;stroke-dasharray:1, 3;stroke-dashoffset:3.6" />
      <path
         d="m 3.5,918.86218 17.911277,0 0,0"
         id="path5277"
         style="fill:none;stroke:#000000;stroke-width:1px;stroke-linecap:square;stroke-linejoin:miter;stroke-opacity:1" />
      <path
         d="m 18.485186,903.93609 0,17.91128 0,0"
         id="path5281"
         style="fill:none;stroke:#000000;stroke-width:1px;stroke-linecap:square;stroke-linejoin:miter;stroke-opacity:1" />
      <path
         d="m 12.485186,903.87699 0,17.91128 0,0"
         id="path5283"
         style="fill:none;stroke:#000000;stroke-width:1;stroke-linecap:square;stroke-linejoin:miter;stroke-miterlimit:4;stroke-opacity:1;stroke-dasharray:1, 3;stroke-dashoffset:3.6" />
      <path
         d="m 6.485186,903.87699 0,17.91128 0,0"
         id="path5285"
         style="fill:none;stroke:#000000;stroke-width:1px;stroke-linecap:square;stroke-linejoin:miter;stroke-opacity:1" />
    </g>
    <rect
       width="5"
       height="5"
       rx="0"
       x="6"
       y="857.36218"
       id="rect5287"
       style="color:#000000;fill:#ff7f4b;fill-opacity:1;fill-rule:nonzero;stroke:none;stroke-width:1;marker:none;visibility:visible;display:inline;overflow:visible;enable-background:accumulate" />
    <rect
       width="5"
       height="5"
       rx="0"
       x="12"
       y="863.36218"
       id="rect5297"
       style="color:#000000;fill:#534bff;fill-opacity:1;fill-rule:nonzero;stroke:none;stroke-width:1;marker:none;visibility:visible;display:inline;overflow:visible;enable-background:accumulate" />
    <g
       transform="translate(0,-50)"
       id="g5315">
      <rect
         width="6"
         height="5.9999976"
         x="3.5"
         y="936.86218"
         id="rect5299"
         style="color:#000000;fill:none;stroke:#000000;stroke-width:1;stroke-miterlimit:4;stroke-opacity:1;stroke-dasharray:1, 1;stroke-dashoffset:0;marker:none;visibility:visible;display:inline;overflow:visible;enable-background:accumulate" />
      <rect
         width="7"
         height="7"
         x="10"
         y="943.36218"
         id="rect5301"
         style="color:#000000;fill:#4b4dff;fill-opacity:1;fill-rule:nonzero;stroke:none;stroke-width:1;marker:none;visibility:visible;display:inline;overflow:visible;enable-background:accumulate" />
      <g
         transform="matrix(0.85856081,-0.07641826,0.07641826,0.85856081,-68.195542,134.65845)"
         id="g5311">
        <path
           d="M 3.9797347,482.57706 A 9.5,10 0 1 1 18.610645,494.65677"
           transform="matrix(0.67809967,0,0,0.68392981,6.5817252,603.55167)"
           id="path5307"
           style="color:#000000;fill:none;stroke:#000000;stroke-width:1.70358133;stroke-linecap:square;stroke-linejoin:round;stroke-miterlimit:4;stroke-opacity:1;stroke-dasharray:none;stroke-dashoffset:0;marker:none;visibility:visible;display:inline;overflow:visible;enable-background:accumulate" />
        <path
           d="m 16.539734,944.30249 0.99104,-4.13608 3.208038,3.46009 z"
           id="path5309"
           style="fill:#000000;fill-opacity:1;stroke:none" />
      </g>
    </g>
    <g
       transform="translate(2,-51)"
       id="g7240">
      <path
         d="m 10.5,961.65045 0,9.29847"
         id="path5324"
         style="fill:none;stroke:#000000;stroke-width:1px;stroke-linecap:butt;stroke-linejoin:miter;stroke-opacity:1;marker-start:none;marker-end:none" />
      <path
         d="m 10.5,955.86218 -3.0000002,6 6.0000002,0 z"
         id="path5253-1"
         style="fill:#000000;fill-opacity:1;stroke:#000000;stroke-width:1px;stroke-linecap:butt;stroke-linejoin:miter;stroke-opacity:1" />
      <path
         d="m 10.5,976.86218 3,-6 -6,0 z"
         id="path7238"
         style="fill:#000000;fill-opacity:1;stroke:#000000;stroke-width:1px;stroke-linecap:butt;stroke-linejoin:miter;stroke-opacity:1" />
    </g>
    <g
       transform="matrix(0,-1,1,0,-953.86218,950.8622)"
       id="g7245">
      <path
         d="m 10.5,961.65045 0,9.29847"
         id="path7247"
         style="fill:none;stroke:#000000;stroke-width:1px;stroke-linecap:butt;stroke-linejoin:miter;stroke-opacity:1;marker-start:none;marker-end:none" />
      <path
         d="m 10.5,955.86218 -3.0000002,6 6.0000002,0 z"
         id="path7249"
         style="fill:#000000;fill-opacity:1;stroke:#000000;stroke-width:1px;stroke-linecap:butt;stroke-linejoin:miter;stroke-opacity:1" />
      <path
         d="m 10.5,976.86218 3,-6 -6,0 z"
         id="path7251"
         style="fill:#000000;fill-opacity:1;stroke:#000000;stroke-width:1px;stroke-linecap:butt;stroke-linejoin:miter;stroke-opacity:1" />
    </g>
    <g
       transform="translate(0,-50)"
       id="g7284">
      <rect
         width="10"
         height="14.999997"
         x="9.5"
         y="1011.8622"
         id="rect7274"
         style="color:#000000;fill:#ffffff;fill-opacity:1;stroke:#000000;stroke-width:1;stroke-opacity:1;marker:none;visibility:visible;display:inline;overflow:visible;enable-background:accumulate" />
      <rect
         width="10"
         height="14.999997"
         x="4.5"
         y="1006.8622"
         id="rect7272"
         style="color:#000000;fill:#ffffff;fill-opacity:1;stroke:#000000;stroke-width:1;stroke-opacity:1;marker:none;visibility:visible;display:inline;overflow:visible;enable-background:accumulate" />
    </g>
    <rect
       width="4"
       height="8"
       x="10"
       y="982.36218"
       id="rect7294"
       style="color:#000000;fill:#000000;fill-opacity:1;fill-rule:nonzero;stroke:none;stroke-width:1;marker:none;visibility:visible;display:inline;overflow:visible;enable-background:accumulate" />
    <rect
       width="12"
       height="1.9999974"
       x="6"
       y="990.36218"
       id="rect7296"
       style="color:#000000;fill:#000000;fill-opacity:1;fill-rule:nonzero;stroke:none;stroke-width:1;marker:none;visibility:visible;display:inline;overflow:visible;enable-background:accumulate" />
    <rect
       width="11"
       height="2.9999974"
       x="6.5"
       y="992.86218"
       id="rect7298"
       style="color:#000000;fill:#ffffff;fill-opacity:1;fill-rule:nonzero;stroke:#000000;stroke-width:1;stroke-opacity:1;marker:none;visibility:visible;display:inline;overflow:visible;enable-background:accumulate" />
    <path
       d="m 8,997.3622 -3,3 12,0 3,-3 z"
       id="path7302"
       style="fill:#0002fd;fill-opacity:1;stroke:none" />
    <rect
       width="11.291877"
       height="16.909201"
       ry="3.38184"
       x="269.16821"
       y="967.66071"
       transform="matrix(0.96605193,0.25834796,-0.25929087,0.96579928,0,0)"
       id="rect3142"
       style="color:#000000;fill:url(#linearGradient3948);fill-opacity:1;fill-rule:nonzero;stroke:#000000;stroke-width:1.00000024;stroke-opacity:1;marker:none;visibility:visible;display:inline;overflow:visible;enable-background:accumulate" />
    <g
       transform="matrix(0.90211751,0,0,0.9057578,1.3020109,98.114889)"
       id="g5902">
      <path
         d="m 12.399675,1029.2572 c 2.393627,0.7786 3.783647,1.5567 5.403502,2.8075 1.619856,1.2507 3.531092,3.7259 3.96806,4.9214 1.534948,2.5684 1.650646,4.3336 1.780918,7.3381 -2.160367,-3.9491 -3.603325,-5.3298 -5.89096,-6.8907 -2.287635,-1.561 -3.323401,-1.8947 -5.971516,-1.9587 -1.8698875,-0.01 -4.3696963,0.8999 -5.4963432,1.6353 -0.4568201,0.332 -0.9771877,0.5192 -1.5295873,0.5192 -1.8036634,0 -3.2658213,-1.9959 -3.2658213,-4.4581 0,-2.3315 1.612962,-4.2768 3.2960007,-4.4749 2.1957497,-0.2684 5.3121191,-0.2177 7.7057471,0.5609 z"
         id="path4143-0"
         style="color:#000000;fill:url(#linearGradient5900);fill-opacity:1;stroke:none;stroke-width:1;marker:none;visibility:visible;display:inline;overflow:visible;enable-background:accumulate" />
      <path
         d="m 6.03125,1037.9559 5.25627,12.2622"
         id="path4139"
         style="fill:none;stroke:#000000;stroke-width:2.32317352;stroke-linecap:round;stroke-linejoin:miter;stroke-miterlimit:4;stroke-opacity:1;stroke-dasharray:none" />
      <path
         d="m 4.6632524,1028.7904 c 2.1987073,-0.2646 5.3150764,-0.2139 7.7087036,0.5647 2.393628,0.7785 3.783648,1.5567 5.403503,2.8074 1.619856,1.2508 3.531092,3.726 3.968061,4.9215 1.534947,2.5684 1.650645,4.3336 1.780917,7.3381 -2.160367,-3.9491 -3.603324,-5.3298 -5.89096,-6.8908 -2.287635,-1.5609 -3.323401,-1.8946 -5.971516,-1.9586 -1.8698875,-0.01 -4.1497643,0.7029 -5.2757321,1.4368"
         id="path4143"
         style="color:#000000;fill:none;stroke:#000000;stroke-width:1.10627317;stroke-linecap:square;stroke-linejoin:round;stroke-miterlimit:4;stroke-opacity:1;stroke-dasharray:none;stroke-dashoffset:0;marker:none;visibility:visible;display:inline;overflow:visible;enable-background:accumulate" />
      <path
         d="m 7.8155161,1033.2461 c 0,2.4621 -1.4621579,4.4581 -3.2658213,4.4581 -1.8036634,0 -3.2658213,-1.996 -3.2658213,-4.4581 0,-2.4476 1.44549,-4.4374 3.2521028,-4.4581 1.8173819,0 3.2795398,1.9959 3.2795398,4.4581 z"
         id="path4153"
         style="color:#000000;fill:none;stroke:#000000;stroke-width:1.10627317;stroke-linecap:square;stroke-linejoin:round;stroke-miterlimit:4;stroke-opacity:1;stroke-dashoffset:0;marker:none;visibility:visible;display:inline;overflow:visible;enable-background:accumulate" />
      <path
         d="m 21.120653,1036.2239 c -0.01225,1.2235 -0.900783,2.2921 -1.96986,2.7993 m -0.984931,-6.6353 c -0.02334,0.9599 -0.690995,1.9797 -1.199993,2.7554 -0.178946,0.4308 -0.89899,0.9679 -1.28825,1.2102 m -2.125378,-6.6612 c 0.679711,1.0898 1.384128,2.4636 0.823386,3.7514 -0.184606,0.3598 -0.901253,1.3076 -1.160335,1.6139 m -3.8619638,-6.0911 c 1.4483588,0.9184 1.7340938,2.9217 1.2680698,4.457 -0.227165,0.6585 -0.595576,1.2585 -1.0088782,1.8153 m -1.5292334,-1.2439 c 1.3143863,-0.2332 3.5526876,0.4464 4.8468926,0.8551 m -5.7151865,-5.0152 c 2.4829768,0.1824 4.8352135,1.1768 7.1532365,1.978 1.730035,0.7352 3.399372,2.4231 4.872785,3.654 1.035566,0.934 1.723109,1.8054 2.52419,3.1408 0.148997,0.4261 0.374402,0.8628 0.495909,1.2973 m -14.3074228,-7.8021 c 3.0284138,-0.212 6.5020598,1.4511 9.0266698,3.0045 2.486724,1.7113 4.207094,3.9598 5.596626,6.6853 0.331944,0.7821 0.611678,1.276 0.619298,2.1282"
         id="path5694"
         style="color:#000000;fill:none;stroke:#000000;stroke-width:0.55313659;stroke-linecap:square;stroke-linejoin:round;stroke-miterlimit:4;stroke-opacity:0.52173911;stroke-dasharray:none;stroke-dashoffset:0;marker:none;visibility:visible;display:inline;overflow:visible;enable-background:accumulate" />
    </g>
  </g>
</svg>
